<mxfile host="Electron" modified="2023-12-15T20:29:47.489Z" agent="Mozilla/5.0 (Macintosh; Intel Mac OS X 10_15_7) AppleWebKit/537.36 (KHTML, like Gecko) draw.io/21.4.0 Chrome/112.0.5615.204 Electron/24.5.1 Safari/537.36" etag="Kp8TC9bd_SwrF2_EEMn9" version="21.4.0" type="device">
  <diagram name="Page-1" id="0783ab3e-0a74-02c8-0abd-f7b4e66b4bec">
    <mxGraphModel dx="1818" dy="994" grid="1" gridSize="10" guides="1" tooltips="1" connect="1" arrows="1" fold="1" page="1" pageScale="1" pageWidth="850" pageHeight="1100" background="none" math="0" shadow="0">
      <root>
        <mxCell id="0" />
        <mxCell id="1" parent="0" />
        <mxCell id="1c1d494c118603dd-1" value="Схема интеграции в части обмена информации о совершенных проходах со сторонними перевозчиками" style="swimlane;html=1;childLayout=stackLayout;startSize=20;rounded=0;shadow=0;comic=0;labelBackgroundColor=none;strokeWidth=1;fontFamily=Verdana;fontSize=12;align=center;" parent="1" vertex="1">
          <mxGeometry x="40" y="20" width="1310" height="990" as="geometry" />
        </mxCell>
        <mxCell id="2zmmHPcW2234nlNqoh1p-1" value="Пассажир" style="swimlane;html=1;startSize=20;fillColor=#f5f5f5;fontColor=#333333;strokeColor=#666666;" parent="1c1d494c118603dd-1" vertex="1">
          <mxGeometry y="20" width="250" height="970" as="geometry" />
        </mxCell>
        <mxCell id="2zmmHPcW2234nlNqoh1p-49" value="" style="edgeStyle=orthogonalEdgeStyle;rounded=0;orthogonalLoop=1;jettySize=auto;html=1;" parent="2zmmHPcW2234nlNqoh1p-1" source="2zmmHPcW2234nlNqoh1p-43" target="2zmmHPcW2234nlNqoh1p-46" edge="1">
          <mxGeometry relative="1" as="geometry" />
        </mxCell>
        <mxCell id="2zmmHPcW2234nlNqoh1p-43" value="" style="ellipse;whiteSpace=wrap;html=1;rounded=0;shadow=0;comic=0;labelBackgroundColor=none;strokeWidth=1;fillColor=#000000;fontFamily=Verdana;fontSize=12;align=center;" parent="2zmmHPcW2234nlNqoh1p-1" vertex="1">
          <mxGeometry x="100" y="50" width="40" height="40" as="geometry" />
        </mxCell>
        <mxCell id="2zmmHPcW2234nlNqoh1p-44" value="Прикладывается&lt;br&gt;к валидатору" style="rounded=1;whiteSpace=wrap;html=1;shadow=0;comic=0;labelBackgroundColor=none;strokeWidth=1;fontFamily=Verdana;fontSize=12;align=center;arcSize=50;" parent="2zmmHPcW2234nlNqoh1p-1" vertex="1">
          <mxGeometry x="60" y="200" width="120" height="40" as="geometry" />
        </mxCell>
        <mxCell id="2zmmHPcW2234nlNqoh1p-50" value="" style="edgeStyle=orthogonalEdgeStyle;rounded=0;orthogonalLoop=1;jettySize=auto;html=1;" parent="2zmmHPcW2234nlNqoh1p-1" source="2zmmHPcW2234nlNqoh1p-46" target="2zmmHPcW2234nlNqoh1p-44" edge="1">
          <mxGeometry relative="1" as="geometry" />
        </mxCell>
        <mxCell id="2zmmHPcW2234nlNqoh1p-46" value="Билетный носитель" style="rounded=0;whiteSpace=wrap;html=1;shadow=0;comic=0;labelBackgroundColor=none;strokeWidth=1;fontFamily=Verdana;fontSize=12;align=center;arcSize=50;" parent="2zmmHPcW2234nlNqoh1p-1" vertex="1">
          <mxGeometry x="85" y="130" width="70" height="40" as="geometry" />
        </mxCell>
        <mxCell id="1c1d494c118603dd-2" value="Валидатор стороннего перевозчика" style="swimlane;html=1;startSize=20;fillColor=#dae8fc;strokeColor=#6c8ebf;" parent="1c1d494c118603dd-1" vertex="1">
          <mxGeometry x="250" y="20" width="250" height="970" as="geometry" />
        </mxCell>
        <mxCell id="2zmmHPcW2234nlNqoh1p-55" value="save" style="edgeStyle=orthogonalEdgeStyle;rounded=0;orthogonalLoop=1;jettySize=auto;html=1;exitX=0.5;exitY=1;exitDx=0;exitDy=0;entryX=0.5;entryY=0;entryDx=0;entryDy=0;entryPerimeter=0;" parent="1c1d494c118603dd-2" source="2zmmHPcW2234nlNqoh1p-51" target="2zmmHPcW2234nlNqoh1p-54" edge="1">
          <mxGeometry relative="1" as="geometry" />
        </mxCell>
        <mxCell id="2zmmHPcW2234nlNqoh1p-51" value="Факт&lt;br&gt;прохода" style="rounded=0;whiteSpace=wrap;html=1;shadow=0;comic=0;labelBackgroundColor=none;strokeWidth=1;fontFamily=Verdana;fontSize=12;align=center;arcSize=50;" parent="1c1d494c118603dd-2" vertex="1">
          <mxGeometry x="80" y="200" width="90" height="40" as="geometry" />
        </mxCell>
        <mxCell id="2zmmHPcW2234nlNqoh1p-54" value="Local&lt;br&gt;DB" style="shape=cylinder3;whiteSpace=wrap;html=1;boundedLbl=1;backgroundOutline=1;size=15;" parent="1c1d494c118603dd-2" vertex="1">
          <mxGeometry x="98.75" y="290" width="52.5" height="70" as="geometry" />
        </mxCell>
        <mxCell id="2zmmHPcW2234nlNqoh1p-66" value="read" style="edgeStyle=orthogonalEdgeStyle;rounded=0;orthogonalLoop=1;jettySize=auto;html=1;exitX=0.5;exitY=0;exitDx=0;exitDy=0;entryX=0.5;entryY=1;entryDx=0;entryDy=0;entryPerimeter=0;" parent="1c1d494c118603dd-2" source="2zmmHPcW2234nlNqoh1p-56" target="2zmmHPcW2234nlNqoh1p-54" edge="1">
          <mxGeometry relative="1" as="geometry" />
        </mxCell>
        <mxCell id="2zmmHPcW2234nlNqoh1p-56" value="Периодическая&amp;nbsp; выгрузка на&lt;br&gt;сервер" style="rounded=1;whiteSpace=wrap;html=1;" parent="1c1d494c118603dd-2" vertex="1">
          <mxGeometry x="65" y="410" width="120" height="60" as="geometry" />
        </mxCell>
        <mxCell id="2zmmHPcW2234nlNqoh1p-67" style="rounded=0;orthogonalLoop=1;jettySize=auto;html=1;exitX=0.5;exitY=0;exitDx=0;exitDy=0;exitPerimeter=0;entryX=0.5;entryY=1;entryDx=0;entryDy=0;endArrow=oval;endFill=0;dashed=1;" parent="1c1d494c118603dd-2" source="2zmmHPcW2234nlNqoh1p-47" target="2zmmHPcW2234nlNqoh1p-56" edge="1">
          <mxGeometry relative="1" as="geometry" />
        </mxCell>
        <mxCell id="2zmmHPcW2234nlNqoh1p-47" value="Интеграция между &lt;i&gt;&lt;b&gt;валидатором&lt;/b&gt;&lt;/i&gt; и &lt;i&gt;&lt;b&gt;внутренней ИС&lt;/b&gt; &lt;/i&gt;стороннего перевозчика происходит в пакетном режиме с помощью &lt;b&gt;файлов&amp;nbsp;&lt;/b&gt;с определенной периодичностью при наличии сети." style="shape=note;whiteSpace=wrap;html=1;rounded=0;shadow=0;comic=0;labelBackgroundColor=none;strokeWidth=1;fontFamily=Verdana;fontSize=12;align=center;size=20;verticalAlign=middle;fillColor=#fff2cc;strokeColor=#d6b656;" parent="1c1d494c118603dd-2" vertex="1">
          <mxGeometry x="40" y="550" width="163.75" height="140" as="geometry" />
        </mxCell>
        <mxCell id="1c1d494c118603dd-3" value="Система стороннего перевозчика" style="swimlane;html=1;startSize=20;fillColor=#dae8fc;strokeColor=#6c8ebf;" parent="1c1d494c118603dd-1" vertex="1">
          <mxGeometry x="500" y="20" width="250" height="970" as="geometry" />
        </mxCell>
        <mxCell id="2zmmHPcW2234nlNqoh1p-64" style="edgeStyle=orthogonalEdgeStyle;rounded=0;orthogonalLoop=1;jettySize=auto;html=1;exitX=0.5;exitY=1;exitDx=0;exitDy=0;entryX=0.5;entryY=0;entryDx=0;entryDy=0;" parent="1c1d494c118603dd-3" source="2zmmHPcW2234nlNqoh1p-60" target="2zmmHPcW2234nlNqoh1p-63" edge="1">
          <mxGeometry relative="1" as="geometry" />
        </mxCell>
        <mxCell id="2zmmHPcW2234nlNqoh1p-60" value="Файл с фактами проходов" style="rounded=0;whiteSpace=wrap;html=1;shadow=0;comic=0;labelBackgroundColor=none;strokeWidth=1;fontFamily=Verdana;fontSize=12;align=center;arcSize=50;" parent="1c1d494c118603dd-3" vertex="1">
          <mxGeometry x="80" y="50" width="90" height="50" as="geometry" />
        </mxCell>
        <mxCell id="2zmmHPcW2234nlNqoh1p-62" value="Server DB" style="shape=cylinder3;whiteSpace=wrap;html=1;boundedLbl=1;backgroundOutline=1;size=15;" parent="1c1d494c118603dd-3" vertex="1">
          <mxGeometry x="98.75" y="290" width="52.5" height="70" as="geometry" />
        </mxCell>
        <mxCell id="2zmmHPcW2234nlNqoh1p-65" value="save" style="edgeStyle=orthogonalEdgeStyle;rounded=0;orthogonalLoop=1;jettySize=auto;html=1;exitX=0.5;exitY=1;exitDx=0;exitDy=0;entryX=0.5;entryY=0;entryDx=0;entryDy=0;entryPerimeter=0;" parent="1c1d494c118603dd-3" source="2zmmHPcW2234nlNqoh1p-63" target="2zmmHPcW2234nlNqoh1p-62" edge="1">
          <mxGeometry relative="1" as="geometry" />
        </mxCell>
        <mxCell id="2zmmHPcW2234nlNqoh1p-63" value="Разбор данных и сохранение в базе данных" style="rounded=1;whiteSpace=wrap;html=1;" parent="1c1d494c118603dd-3" vertex="1">
          <mxGeometry x="65" y="150" width="120" height="60" as="geometry" />
        </mxCell>
        <mxCell id="2zmmHPcW2234nlNqoh1p-71" value="read" style="edgeStyle=orthogonalEdgeStyle;rounded=0;orthogonalLoop=1;jettySize=auto;html=1;exitX=0.5;exitY=0;exitDx=0;exitDy=0;entryX=0.5;entryY=1;entryDx=0;entryDy=0;entryPerimeter=0;" parent="1c1d494c118603dd-3" source="2zmmHPcW2234nlNqoh1p-68" target="2zmmHPcW2234nlNqoh1p-62" edge="1">
          <mxGeometry relative="1" as="geometry" />
        </mxCell>
        <mxCell id="2zmmHPcW2234nlNqoh1p-68" value="Периодическая&amp;nbsp; выгрузка на&lt;br&gt;сервер" style="rounded=1;whiteSpace=wrap;html=1;" parent="1c1d494c118603dd-3" vertex="1">
          <mxGeometry x="65" y="410" width="120" height="60" as="geometry" />
        </mxCell>
        <mxCell id="2zmmHPcW2234nlNqoh1p-70" style="edgeStyle=orthogonalEdgeStyle;rounded=0;orthogonalLoop=1;jettySize=auto;html=1;exitX=0.5;exitY=0;exitDx=0;exitDy=0;exitPerimeter=0;entryX=0.5;entryY=1;entryDx=0;entryDy=0;endArrow=oval;endFill=0;dashed=1;" parent="1c1d494c118603dd-3" source="2zmmHPcW2234nlNqoh1p-69" target="2zmmHPcW2234nlNqoh1p-68" edge="1">
          <mxGeometry relative="1" as="geometry" />
        </mxCell>
        <mxCell id="2zmmHPcW2234nlNqoh1p-69" value="Интеграция между &lt;i&gt;&lt;b&gt;внутренней ИС &lt;/b&gt;&lt;/i&gt;стороннего перевозчика и &lt;i&gt;&lt;b&gt;билетной системой&lt;/b&gt;&lt;/i&gt; происходит в пакетном режиме через&lt;br&gt;&lt;b&gt;REST API&lt;br&gt;&lt;/b&gt;с определенной периодичностью." style="shape=note;whiteSpace=wrap;html=1;rounded=0;shadow=0;comic=0;labelBackgroundColor=none;strokeWidth=1;fontFamily=Verdana;fontSize=12;align=center;size=20;verticalAlign=middle;fillColor=#fff2cc;strokeColor=#d6b656;" parent="1c1d494c118603dd-3" vertex="1">
          <mxGeometry x="46.25" y="550" width="157.5" height="150" as="geometry" />
        </mxCell>
        <mxCell id="30yX2KAs6OhzjAB0OTzx-5" value="Сверка данных для расчетов по договору" style="rounded=1;whiteSpace=wrap;html=1;" vertex="1" parent="1c1d494c118603dd-3">
          <mxGeometry x="65" y="780" width="120" height="60" as="geometry" />
        </mxCell>
        <mxCell id="1c1d494c118603dd-4" value="Билетная система" style="swimlane;html=1;startSize=20;fillColor=#d5e8d4;strokeColor=#82b366;" parent="1c1d494c118603dd-1" vertex="1">
          <mxGeometry x="750" y="20" width="250" height="970" as="geometry" />
        </mxCell>
        <mxCell id="2zmmHPcW2234nlNqoh1p-75" style="edgeStyle=orthogonalEdgeStyle;rounded=0;orthogonalLoop=1;jettySize=auto;html=1;exitX=0.5;exitY=1;exitDx=0;exitDy=0;entryX=0.5;entryY=0;entryDx=0;entryDy=0;" parent="1c1d494c118603dd-4" source="2zmmHPcW2234nlNqoh1p-72" target="2zmmHPcW2234nlNqoh1p-74" edge="1">
          <mxGeometry relative="1" as="geometry" />
        </mxCell>
        <mxCell id="2zmmHPcW2234nlNqoh1p-72" value="JSON с фактами проходов" style="rounded=0;whiteSpace=wrap;html=1;shadow=0;comic=0;labelBackgroundColor=none;strokeWidth=1;fontFamily=Verdana;fontSize=12;align=center;arcSize=50;" parent="1c1d494c118603dd-4" vertex="1">
          <mxGeometry x="80" y="50" width="90" height="50" as="geometry" />
        </mxCell>
        <mxCell id="2zmmHPcW2234nlNqoh1p-77" value="save" style="edgeStyle=orthogonalEdgeStyle;rounded=0;orthogonalLoop=1;jettySize=auto;html=1;exitX=0.5;exitY=1;exitDx=0;exitDy=0;entryX=0.5;entryY=0;entryDx=0;entryDy=0;entryPerimeter=0;" parent="1c1d494c118603dd-4" source="2zmmHPcW2234nlNqoh1p-74" target="2zmmHPcW2234nlNqoh1p-76" edge="1">
          <mxGeometry relative="1" as="geometry" />
        </mxCell>
        <mxCell id="2zmmHPcW2234nlNqoh1p-74" value="Разбор данных и сохранение в базе данных" style="rounded=1;whiteSpace=wrap;html=1;" parent="1c1d494c118603dd-4" vertex="1">
          <mxGeometry x="65" y="150" width="120" height="60" as="geometry" />
        </mxCell>
        <mxCell id="2zmmHPcW2234nlNqoh1p-83" value="" style="edgeStyle=orthogonalEdgeStyle;rounded=0;orthogonalLoop=1;jettySize=auto;html=1;exitX=0.5;exitY=1;exitDx=0;exitDy=0;exitPerimeter=0;entryX=0.5;entryY=0;entryDx=0;entryDy=0;dashed=1;" parent="1c1d494c118603dd-4" source="2zmmHPcW2234nlNqoh1p-76" target="2zmmHPcW2234nlNqoh1p-79" edge="1">
          <mxGeometry relative="1" as="geometry" />
        </mxCell>
        <mxCell id="2zmmHPcW2234nlNqoh1p-76" value="Server DB" style="shape=cylinder3;whiteSpace=wrap;html=1;boundedLbl=1;backgroundOutline=1;size=15;" parent="1c1d494c118603dd-4" vertex="1">
          <mxGeometry x="98.75" y="290" width="52.5" height="70" as="geometry" />
        </mxCell>
        <mxCell id="2zmmHPcW2234nlNqoh1p-79" value="Публикация фактов проходов в шину данных (RabbitMQ)&amp;nbsp;" style="rounded=1;whiteSpace=wrap;html=1;" parent="1c1d494c118603dd-4" vertex="1">
          <mxGeometry x="65" y="410" width="120" height="60" as="geometry" />
        </mxCell>
        <mxCell id="2zmmHPcW2234nlNqoh1p-85" style="edgeStyle=orthogonalEdgeStyle;rounded=0;orthogonalLoop=1;jettySize=auto;html=1;exitX=0.5;exitY=0;exitDx=0;exitDy=0;exitPerimeter=0;entryX=0.5;entryY=1;entryDx=0;entryDy=0;endArrow=oval;endFill=0;dashed=1;" parent="1c1d494c118603dd-4" source="2zmmHPcW2234nlNqoh1p-84" target="2zmmHPcW2234nlNqoh1p-79" edge="1">
          <mxGeometry relative="1" as="geometry" />
        </mxCell>
        <mxCell id="2zmmHPcW2234nlNqoh1p-84" value="Интеграция между &lt;i style=&quot;&quot;&gt;&lt;b&gt;билетной системой&lt;/b&gt; &lt;/i&gt;и множеством внутренних &lt;b&gt;аналитических систем&lt;/b&gt;&amp;nbsp;происходит асинхронно с помощью RabbitMQ" style="shape=note;whiteSpace=wrap;html=1;rounded=0;shadow=0;comic=0;labelBackgroundColor=none;strokeWidth=1;fontFamily=Verdana;fontSize=12;align=center;size=20;verticalAlign=middle;fillColor=#fff2cc;strokeColor=#d6b656;" parent="1c1d494c118603dd-4" vertex="1">
          <mxGeometry x="46.25" y="550" width="157.5" height="120" as="geometry" />
        </mxCell>
        <mxCell id="30yX2KAs6OhzjAB0OTzx-2" value="Сверка данных для расчетов по договору" style="rounded=1;whiteSpace=wrap;html=1;" vertex="1" parent="1c1d494c118603dd-4">
          <mxGeometry x="65" y="780" width="120" height="60" as="geometry" />
        </mxCell>
        <mxCell id="30yX2KAs6OhzjAB0OTzx-3" style="edgeStyle=orthogonalEdgeStyle;rounded=0;orthogonalLoop=1;jettySize=auto;html=1;exitX=0.5;exitY=0;exitDx=0;exitDy=0;entryX=0.5;entryY=1;entryDx=0;entryDy=0;" edge="1" parent="1c1d494c118603dd-4" source="30yX2KAs6OhzjAB0OTzx-1" target="30yX2KAs6OhzjAB0OTzx-2">
          <mxGeometry relative="1" as="geometry" />
        </mxCell>
        <mxCell id="30yX2KAs6OhzjAB0OTzx-1" value="" style="ellipse;whiteSpace=wrap;html=1;rounded=0;shadow=0;comic=0;labelBackgroundColor=none;strokeWidth=1;fillColor=#000000;fontFamily=Verdana;fontSize=12;align=center;" vertex="1" parent="1c1d494c118603dd-4">
          <mxGeometry x="105" y="890" width="40" height="40" as="geometry" />
        </mxCell>
        <mxCell id="30yX2KAs6OhzjAB0OTzx-7" value="Файл с фактами проходов" style="rounded=0;whiteSpace=wrap;html=1;shadow=0;comic=0;labelBackgroundColor=none;strokeWidth=1;fontFamily=Verdana;fontSize=12;align=center;arcSize=50;" vertex="1" parent="1c1d494c118603dd-4">
          <mxGeometry x="-43.75" y="750" width="90" height="50" as="geometry" />
        </mxCell>
        <mxCell id="2zmmHPcW2234nlNqoh1p-10" value="Аналитические системы" style="swimlane;html=1;startSize=20;fillColor=#d5e8d4;strokeColor=#82b366;" parent="1c1d494c118603dd-1" vertex="1">
          <mxGeometry x="1000" y="20" width="310" height="970" as="geometry" />
        </mxCell>
        <mxCell id="2zmmHPcW2234nlNqoh1p-80" value="Система анализа проходов" style="rounded=1;whiteSpace=wrap;html=1;" parent="2zmmHPcW2234nlNqoh1p-10" vertex="1">
          <mxGeometry x="175" y="150" width="120" height="60" as="geometry" />
        </mxCell>
        <mxCell id="2zmmHPcW2234nlNqoh1p-82" value="Система N" style="rounded=1;whiteSpace=wrap;html=1;" parent="2zmmHPcW2234nlNqoh1p-10" vertex="1">
          <mxGeometry x="175" y="330" width="120" height="60" as="geometry" />
        </mxCell>
        <mxCell id="2zmmHPcW2234nlNqoh1p-88" style="edgeStyle=orthogonalEdgeStyle;rounded=0;orthogonalLoop=1;jettySize=auto;html=1;exitX=0.5;exitY=1;exitDx=0;exitDy=0;entryX=0;entryY=0.5;entryDx=0;entryDy=0;dashed=1;" parent="2zmmHPcW2234nlNqoh1p-10" source="2zmmHPcW2234nlNqoh1p-86" target="2zmmHPcW2234nlNqoh1p-80" edge="1">
          <mxGeometry relative="1" as="geometry" />
        </mxCell>
        <mxCell id="2zmmHPcW2234nlNqoh1p-89" style="edgeStyle=orthogonalEdgeStyle;rounded=0;orthogonalLoop=1;jettySize=auto;html=1;exitX=0.5;exitY=1;exitDx=0;exitDy=0;entryX=0;entryY=0.5;entryDx=0;entryDy=0;dashed=1;" parent="2zmmHPcW2234nlNqoh1p-10" source="2zmmHPcW2234nlNqoh1p-86" target="2zmmHPcW2234nlNqoh1p-81" edge="1">
          <mxGeometry relative="1" as="geometry" />
        </mxCell>
        <mxCell id="2zmmHPcW2234nlNqoh1p-90" value="consume" style="edgeStyle=orthogonalEdgeStyle;rounded=0;orthogonalLoop=1;jettySize=auto;html=1;exitX=0.5;exitY=1;exitDx=0;exitDy=0;entryX=0;entryY=0.5;entryDx=0;entryDy=0;dashed=1;" parent="2zmmHPcW2234nlNqoh1p-10" source="2zmmHPcW2234nlNqoh1p-86" target="2zmmHPcW2234nlNqoh1p-82" edge="1">
          <mxGeometry x="-0.7857" relative="1" as="geometry">
            <mxPoint as="offset" />
          </mxGeometry>
        </mxCell>
        <mxCell id="2zmmHPcW2234nlNqoh1p-86" value="Сообщения с фактами проходов" style="rounded=0;whiteSpace=wrap;html=1;shadow=0;comic=0;labelBackgroundColor=none;strokeWidth=1;fontFamily=Verdana;fontSize=12;align=center;arcSize=50;" parent="2zmmHPcW2234nlNqoh1p-10" vertex="1">
          <mxGeometry x="110" y="50" width="90" height="50" as="geometry" />
        </mxCell>
        <mxCell id="2zmmHPcW2234nlNqoh1p-81" value="Система сбора статистики" style="rounded=1;whiteSpace=wrap;html=1;" parent="2zmmHPcW2234nlNqoh1p-10" vertex="1">
          <mxGeometry x="175" y="240" width="120" height="60" as="geometry" />
        </mxCell>
        <mxCell id="2zmmHPcW2234nlNqoh1p-52" style="edgeStyle=orthogonalEdgeStyle;rounded=0;orthogonalLoop=1;jettySize=auto;html=1;endArrow=none;endFill=0;" parent="1c1d494c118603dd-1" source="2zmmHPcW2234nlNqoh1p-44" target="2zmmHPcW2234nlNqoh1p-51" edge="1">
          <mxGeometry relative="1" as="geometry" />
        </mxCell>
        <mxCell id="2zmmHPcW2234nlNqoh1p-61" value="HTTP&lt;br&gt;API" style="edgeStyle=orthogonalEdgeStyle;rounded=0;orthogonalLoop=1;jettySize=auto;html=1;exitX=1;exitY=0.5;exitDx=0;exitDy=0;entryX=0;entryY=0.5;entryDx=0;entryDy=0;" parent="1c1d494c118603dd-1" source="2zmmHPcW2234nlNqoh1p-56" target="2zmmHPcW2234nlNqoh1p-60" edge="1">
          <mxGeometry relative="1" as="geometry">
            <Array as="points">
              <mxPoint x="520" y="460" />
              <mxPoint x="520" y="95" />
            </Array>
          </mxGeometry>
        </mxCell>
        <mxCell id="2zmmHPcW2234nlNqoh1p-73" value="HTTP&lt;br&gt;API" style="edgeStyle=orthogonalEdgeStyle;rounded=0;orthogonalLoop=1;jettySize=auto;html=1;exitX=1;exitY=0.5;exitDx=0;exitDy=0;entryX=0;entryY=0.5;entryDx=0;entryDy=0;" parent="1c1d494c118603dd-1" source="2zmmHPcW2234nlNqoh1p-68" target="2zmmHPcW2234nlNqoh1p-72" edge="1">
          <mxGeometry relative="1" as="geometry">
            <Array as="points">
              <mxPoint x="770" y="460" />
              <mxPoint x="770" y="95" />
            </Array>
          </mxGeometry>
        </mxCell>
        <mxCell id="2zmmHPcW2234nlNqoh1p-87" value="publish" style="edgeStyle=orthogonalEdgeStyle;rounded=0;orthogonalLoop=1;jettySize=auto;html=1;exitX=1;exitY=0.5;exitDx=0;exitDy=0;entryX=0;entryY=0.5;entryDx=0;entryDy=0;dashed=1;" parent="1c1d494c118603dd-1" source="2zmmHPcW2234nlNqoh1p-79" target="2zmmHPcW2234nlNqoh1p-86" edge="1">
          <mxGeometry x="0.002" relative="1" as="geometry">
            <Array as="points">
              <mxPoint x="1020" y="460" />
              <mxPoint x="1020" y="95" />
            </Array>
            <mxPoint as="offset" />
          </mxGeometry>
        </mxCell>
        <mxCell id="30yX2KAs6OhzjAB0OTzx-6" value="FTP" style="edgeStyle=orthogonalEdgeStyle;rounded=0;orthogonalLoop=1;jettySize=auto;html=1;exitX=0;exitY=0.5;exitDx=0;exitDy=0;entryX=1;entryY=0.5;entryDx=0;entryDy=0;startArrow=classic;startFill=1;dashed=1;" edge="1" parent="1c1d494c118603dd-1" source="30yX2KAs6OhzjAB0OTzx-2" target="30yX2KAs6OhzjAB0OTzx-5">
          <mxGeometry relative="1" as="geometry" />
        </mxCell>
      </root>
    </mxGraphModel>
  </diagram>
</mxfile>
